<svg xmlns="http://www.w3.org/2000/svg" xmlns:xlink="http://www.w3.org/1999/xlink" viewBox="0 0 1366.6 893.5"><defs><style>.cls-1,.cls-3,.cls-5{fill:#fff;}.cls-1,.cls-2,.cls-6{stroke:#040000;}.cls-1,.cls-2,.cls-5,.cls-6{stroke-miterlimit:10;}.cls-1,.cls-5,.cls-6{stroke-width:0.71px;}.cls-2{fill:#17499d;stroke-width:0.94px;}.cls-4{clip-path:url(#clip-path);}.cls-5{stroke:#006536;}.cls-6{fill:none;}</style><clipPath id="clip-path"><path class="cls-1" d="M343.93,198.83,279.09,310.56H408.76Zm-48.3-83.22L134.09,394H457.17l-27.83-48H217.5L323.43,163.5Zm0-70.64L518.75,429.45H72.52Z"/></clipPath></defs><title>资源 1</title><g id="图层_2" data-name="图层 2"><g id="图层_1-2" data-name="图层 1"><rect class="cls-2" x="0.47" y="0.47" width="588.53" height="507"/><path class="cls-3" d="M343.93,198.83,279.09,310.56H408.76Zm-48.3-83.22L134.09,394H457.17l-27.83-48H217.5L323.43,163.5Zm0-70.64L518.75,429.45H72.52Z"/><g class="cls-4"><rect class="cls-5" x="918" y="506.65" width="448.25" height="386.5"/></g><path class="cls-6" d="M343.93,198.83,279.09,310.56H408.76Zm-48.3-83.22L134.09,394H457.17l-27.83-48H217.5L323.43,163.5Zm0-70.64L518.75,429.45H72.52Z"/></g></g></svg>