<svg xmlns="http://www.w3.org/2000/svg" xmlns:xlink="http://www.w3.org/1999/xlink" viewBox="0 0 686 251.2"><defs><style>.cls-1,.cls-5,.cls-7{fill:#f3f3f3;}.cls-1{clip-rule:evenodd;}.cls-10,.cls-12,.cls-2{fill:#fff;}.cls-13,.cls-2,.cls-9{stroke:#040000;}.cls-12,.cls-13,.cls-2,.cls-9{stroke-miterlimit:10;}.cls-12,.cls-13,.cls-2{stroke-width:0.16px;}.cls-3{fill:#0c0b0b;}.cls-4{opacity:0.6;}.cls-5{fill-rule:evenodd;}.cls-6{clip-path:url(#clip-path);}.cls-8{opacity:0.8;font-size:84.7px;fill:#e9e9e9;font-family:SourceHanSansCN-Regular-GBpc-EUC-H, Source Han Sans CN;}.cls-9{fill:#17499d;stroke-width:0.22px;}.cls-11{clip-path:url(#clip-path-2);}.cls-12{stroke:#006536;}.cls-13{fill:none;}</style><clipPath id="clip-path"><path class="cls-1" d="M507,35.35v3.14h-5.62V55.74h-3.92V38.49H491.8V35.35Zm44.43,0V52.6H560v3.14H547.47V35.35Zm-36.85,0v8.1h6.66v-8.1h3.92V55.74H521.2V46.59h-6.66v9.15h-3.92V35.35Zm28.34,0v3.14h-9.67v5.22h8.63v3.14h-8.63V52.6h9.67v3.14H529.29V35.35Zm34.63,0v3.14h-9.67v5.22h8.62v3.14h-8.62V52.6h9.67v3.14H563.92V35.35Zm27.22-.26a10.39,10.39,0,0,1,7.16,2.49l.11.1-2.11,2.5a7.12,7.12,0,0,0-5.11-1.73,3.58,3.58,0,0,0-2.7,1,2.1,2.1,0,0,0-.55,1.52c.1,1,1,1.66,2.79,2.36l.19.07.2.08.45.15.35.12.84.27a10,10,0,0,1,3.36,1.6,5.85,5.85,0,0,1,2.18,4.57c0,3.85-2.85,6-7.22,5.83a9.77,9.77,0,0,1-4.29-1,10.69,10.69,0,0,1-2.9-2.2l-.11-.11,2.39-2.54.19.18a6.52,6.52,0,0,0,4.83,2.23c2.17.13,3.67-1,3.67-2.41V50c0-1.34-.82-2-3.32-2.84l-.77-.25-.16-.06-.28-.09-.86-.31-.24-.1c-2.71-1.11-4.45-2.61-4.71-5.1C597.78,38.08,600.53,35.09,604.73,35.09Zm-17.25,0a10.37,10.37,0,0,1,7.16,2.49l.11.1-2.11,2.5a7.12,7.12,0,0,0-5.11-1.73,3.55,3.55,0,0,0-2.69,1,2.11,2.11,0,0,0-.56,1.52c.11,1,1,1.66,2.79,2.36l.19.07.21.08.45.15.34.12.58.18a10.65,10.65,0,0,1,3.62,1.69,5.85,5.85,0,0,1,2.18,4.57c0,3.85-2.85,6-7.21,5.83a9.82,9.82,0,0,1-4.3-1,10.69,10.69,0,0,1-2.9-2.2l-.11-.11,2.39-2.54c1.8,1.76,2.86,2.27,5,2.41s3.67-1,3.67-2.41V50c0-1.34-.82-2-3.32-2.84l-.77-.25-.16-.06-.28-.09-.86-.31c-2.84-1.12-4.68-2.63-4.94-5.2C580.54,38.08,583.28,35.09,587.48,35.09Z"/></clipPath><clipPath id="clip-path-2"><path class="cls-2" d="M109.88,91.58,95,117.25h29.8ZM98.79,72.46l-37.12,64H135.9l-6.39-11H80.83l24.34-41.94Zm0-16.23,51.26,88.34H47.52Z"/></clipPath></defs><title>资源 3</title><g id="图层_2" data-name="图层 2"><g id="图层_1-2" data-name="图层 1"><rect class="cls-3" width="686" height="240"/><g class="cls-4"><path class="cls-5" d="M507,35.35v3.14h-5.62V55.74h-3.92V38.49H491.8V35.35Zm44.43,0V52.6H560v3.14H547.47V35.35Zm-36.85,0v8.1h6.66v-8.1h3.92V55.74H521.2V46.59h-6.66v9.15h-3.92V35.35Zm28.34,0v3.14h-9.67v5.22h8.63v3.14h-8.63V52.6h9.67v3.14H529.29V35.35Zm34.63,0v3.14h-9.67v5.22h8.62v3.14h-8.62V52.6h9.67v3.14H563.92V35.35Zm27.22-.26a10.39,10.39,0,0,1,7.16,2.49l.11.1-2.11,2.5a7.12,7.12,0,0,0-5.11-1.73,3.58,3.58,0,0,0-2.7,1,2.1,2.1,0,0,0-.55,1.52c.1,1,1,1.66,2.79,2.36l.19.07.2.08.45.15.35.12.84.27a10,10,0,0,1,3.36,1.6,5.85,5.85,0,0,1,2.18,4.57c0,3.85-2.85,6-7.22,5.83a9.77,9.77,0,0,1-4.29-1,10.69,10.69,0,0,1-2.9-2.2l-.11-.11,2.39-2.54.19.18a6.52,6.52,0,0,0,4.83,2.23c2.17.13,3.67-1,3.67-2.41V50c0-1.34-.82-2-3.32-2.84l-.77-.25-.16-.06-.28-.09-.86-.31-.24-.1c-2.71-1.11-4.45-2.61-4.71-5.1C597.78,38.08,600.53,35.09,604.73,35.09Zm-17.25,0a10.37,10.37,0,0,1,7.16,2.49l.11.1-2.11,2.5a7.12,7.12,0,0,0-5.11-1.73,3.55,3.55,0,0,0-2.69,1,2.11,2.11,0,0,0-.56,1.52c.11,1,1,1.66,2.79,2.36l.19.07.21.08.45.15.34.12.58.18a10.65,10.65,0,0,1,3.62,1.69,5.85,5.85,0,0,1,2.18,4.57c0,3.85-2.85,6-7.21,5.83a9.82,9.82,0,0,1-4.3-1,10.69,10.69,0,0,1-2.9-2.2l-.11-.11,2.39-2.54c1.8,1.76,2.86,2.27,5,2.41s3.67-1,3.67-2.41V50c0-1.34-.82-2-3.32-2.84l-.77-.25-.16-.06-.28-.09-.86-.31c-2.84-1.12-4.68-2.63-4.94-5.2C580.54,38.08,583.28,35.09,587.48,35.09Z"/><g class="cls-6"><rect class="cls-7" x="490.53" y="33.81" width="122.75" height="23.47"/></g></g><text class="cls-8" transform="translate(207.2 144.54)">上海来思</text><rect class="cls-9" x="30.96" y="46" width="135.23" height="116.5"/><path class="cls-10" d="M109.88,91.58,95,117.25h29.8ZM98.79,72.46l-37.12,64H135.9l-6.39-11H80.83l24.34-41.94Zm0-16.23,51.26,88.34H47.52Z"/><g class="cls-11"><rect class="cls-12" x="241.79" y="162.31" width="103" height="88.81"/></g><path class="cls-13" d="M109.88,91.58,95,117.25h29.8ZM98.79,72.46l-37.12,64H135.9l-6.39-11H80.83l24.34-41.94Zm0-16.23,51.26,88.34H47.52Z"/></g></g></svg>